<mxfile host="65bd71144e">
    <diagram name="CoT多路径因果推理链" id="cot-reasoning">
        <mxGraphModel dx="670" dy="464" grid="1" gridSize="10" guides="1" tooltips="1" connect="1" arrows="1" fold="1" page="1" pageScale="1" pageWidth="1400" pageHeight="900" math="0" shadow="1">
            <root>
                <mxCell id="0"/>
                <mxCell id="1" parent="0"/>
                <mxCell id="title" value="图1-3 CoT 多路径因果推理链" style="text;html=1;strokeColor=none;fillColor=none;align=center;verticalAlign=middle;whiteSpace=wrap;rounded=0;fontSize=18;fontStyle=1;fontColor=#4284F3;" parent="1" vertex="1">
                    <mxGeometry x="550" y="30" width="300" height="35" as="geometry"/>
                </mxCell>
                <mxCell id="fault_input" value="故障现象观察" style="rounded=1;whiteSpace=wrap;html=1;fillColor=#E8F5E8;strokeColor=#82B366;fontColor=#333333;fontSize=12;fontStyle=1;shadow=1;" parent="1" vertex="1">
                    <mxGeometry x="100" y="100" width="150" height="60" as="geometry"/>
                </mxCell>
                <mxCell id="fault_detail" value="主变压器油温异常升高&#xa;绝缘电阻值下降&#xa;异常声响" style="text;html=1;strokeColor=#82B366;fillColor=#F0F8F0;spacingLeft=4;spacingRight=4;whiteSpace=wrap;overflow=hidden;rotatable=0;fontSize=10;fontColor=#333333;align=left;" parent="1" vertex="1">
                    <mxGeometry x="280" y="100" width="160" height="60" as="geometry"/>
                </mxCell>
                <mxCell id="step1" value="步骤1: 初步分析" style="rounded=1;whiteSpace=wrap;html=1;fillColor=#FFE6CC;strokeColor=#D79B00;fontColor=#333333;fontSize=12;fontStyle=1;shadow=1;" parent="1" vertex="1">
                    <mxGeometry x="100" y="220" width="150" height="60" as="geometry"/>
                </mxCell>
                <mxCell id="step1_thinking" value="思维链推理:&#xa;1. 识别关键症状特征&#xa;2. 关联历史相似案例&#xa;3. 初步故障类型判断" style="text;html=1;strokeColor=#D79B00;fillColor=#FFF8F0;spacingLeft=4;spacingRight=4;whiteSpace=wrap;overflow=hidden;rotatable=0;fontSize=10;fontColor=#333333;align=left;" parent="1" vertex="1">
                    <mxGeometry x="280" y="170" width="200" height="80" as="geometry"/>
                </mxCell>
                <mxCell id="rag_retrieval" value="RAG知识检索" style="rounded=1;whiteSpace=wrap;html=1;fillColor=#E1F5FE;strokeColor=#6C8EBF;fontColor=#333333;fontSize=12;fontStyle=1;shadow=1;" parent="1" vertex="1">
                    <mxGeometry x="520" y="220" width="150" height="60" as="geometry"/>
                </mxCell>
                <mxCell id="rag_knowledge" value="检索到相关知识:&#xa;• 变压器绕组故障案例&#xa;• 绝缘系统老化机理&#xa;• 温升异常处理规程" style="text;html=1;strokeColor=#6C8EBF;fillColor=#F0F8FF;spacingLeft=4;spacingRight=4;whiteSpace=wrap;overflow=hidden;rotatable=0;fontSize=10;fontColor=#333333;align=left;" parent="1" vertex="1">
                    <mxGeometry x="690" y="200" width="200" height="100" as="geometry"/>
                </mxCell>
                <mxCell id="step2" value="步骤2: 深入分析" style="rounded=1;whiteSpace=wrap;html=1;fillColor=#FFF2CC;strokeColor=#D6B656;fontColor=#333333;fontSize=12;fontStyle=1;shadow=1;" parent="1" vertex="1">
                    <mxGeometry x="100" y="360" width="150" height="60" as="geometry"/>
                </mxCell>
                <mxCell id="path_container" value="多路径因果分析" style="swimlane;html=1;fontStyle=1;align=center;verticalAlign=top;childLayout=stackLayout;horizontal=1;startSize=30;horizontalStack=0;resizeParent=1;resizeLast=0;collapsible=0;marginBottom=0;swimlaneFillColor=#F8CECC;strokeColor=#B85450;fontColor=#333333;fontSize=12;" parent="1" vertex="1">
                    <mxGeometry x="300" y="340" width="700" height="140" as="geometry"/>
                </mxCell>
                <mxCell id="pathA" value="路径A: 绕组故障链" style="rounded=1;whiteSpace=wrap;html=1;fillColor=#D5E8D4;strokeColor=#82B366;fontColor=#333333;fontSize=11;shadow=1;" parent="path_container" vertex="1">
                    <mxGeometry x="20" y="40" width="200" height="30" as="geometry"/>
                </mxCell>
                <mxCell id="pathA_detail" value="绕组匝间短路 → 局部过热 → 绝缘老化 → 电阻下降" style="text;html=1;strokeColor=none;fillColor=none;fontSize=9;fontColor=#666666;align=center;" parent="path_container" vertex="1">
                    <mxGeometry x="20" y="75" width="200" height="25" as="geometry"/>
                </mxCell>
                <mxCell id="pathB" value="路径B: 冷却系统故障链" style="rounded=1;whiteSpace=wrap;html=1;fillColor=#DAE8FC;strokeColor=#6C8EBF;fontColor=#333333;fontSize=11;shadow=1;" parent="path_container" vertex="1">
                    <mxGeometry x="250" y="40" width="200" height="30" as="geometry"/>
                </mxCell>
                <mxCell id="pathB_detail" value="冷却器故障 → 散热不良 → 油温升高 → 绝缘性能下降" style="text;html=1;strokeColor=none;fillColor=none;fontSize=9;fontColor=#666666;align=center;" parent="path_container" vertex="1">
                    <mxGeometry x="250" y="75" width="200" height="25" as="geometry"/>
                </mxCell>
                <mxCell id="pathC" value="路径C: 外部环境因素链" style="rounded=1;whiteSpace=wrap;html=1;fillColor=#F8CECC;strokeColor=#B85450;fontColor=#333333;fontSize=11;shadow=1;" parent="path_container" vertex="1">
                    <mxGeometry x="480" y="40" width="200" height="30" as="geometry"/>
                </mxCell>
                <mxCell id="pathC_detail" value="环境温度过高 → 负荷异常 → 系统过载 → 设备老化" style="text;html=1;strokeColor=none;fillColor=none;fontSize=9;fontColor=#666666;align=center;" parent="path_container" vertex="1">
                    <mxGeometry x="480" y="75" width="200" height="25" as="geometry"/>
                </mxCell>
                <mxCell id="prob_A" value="概率: 75%" style="text;html=1;strokeColor=none;fillColor=none;fontSize=10;fontColor=#D79B00;fontStyle=1;align=center;" parent="path_container" vertex="1">
                    <mxGeometry x="20" y="105" width="200" height="20" as="geometry"/>
                </mxCell>
                <mxCell id="prob_B" value="概率: 60%" style="text;html=1;strokeColor=none;fillColor=none;fontSize=10;fontColor=#D79B00;fontStyle=1;align=center;" parent="path_container" vertex="1">
                    <mxGeometry x="250" y="105" width="200" height="20" as="geometry"/>
                </mxCell>
                <mxCell id="prob_C" value="概率: 35%" style="text;html=1;strokeColor=none;fillColor=none;fontSize=10;fontColor=#D79B00;fontStyle=1;align=center;" parent="path_container" vertex="1">
                    <mxGeometry x="480" y="105" width="200" height="20" as="geometry"/>
                </mxCell>
                <mxCell id="step3" value="步骤3: 根因定位" style="rounded=1;whiteSpace=wrap;html=1;fillColor=#E1D5E7;strokeColor=#9673A6;fontColor=#333333;fontSize=12;fontStyle=1;shadow=1;" parent="1" vertex="1">
                    <mxGeometry x="100" y="540" width="150" height="60" as="geometry"/>
                </mxCell>
                <mxCell id="root_cause" value="根因分析结果" style="swimlane;html=1;fontStyle=1;align=center;verticalAlign=top;childLayout=stackLayout;horizontal=1;startSize=30;horizontalStack=0;resizeParent=1;resizeLast=0;collapsible=0;marginBottom=0;swimlaneFillColor=#F0F0F0;strokeColor=#666666;fontColor=#333333;fontSize=12;" parent="1" vertex="1">
                    <mxGeometry x="300" y="520" width="500" height="100" as="geometry"/>
                </mxCell>
                <mxCell id="primary_cause" value="主要原因: 主变绕组B相匝间短路故障 (置信度: 85%)" style="text;html=1;strokeColor=none;fillColor=none;spacingLeft=4;spacingRight=4;whiteSpace=wrap;overflow=hidden;rotatable=0;fontSize=11;fontColor=#333333;fontStyle=1;" parent="root_cause" vertex="1">
                    <mxGeometry y="30" width="500" height="25" as="geometry"/>
                </mxCell>
                <mxCell id="contributing_factors" value="Contributing factors: 冷却系统效率降低 (25%), 负荷波动影响 (15%)" style="text;html=1;strokeColor=none;fillColor=none;spacingLeft=4;spacingRight=4;whiteSpace=wrap;overflow=hidden;rotatable=0;fontSize=10;fontColor=#666666;" parent="root_cause" vertex="1">
                    <mxGeometry y="55" width="500" height="25" as="geometry"/>
                </mxCell>
                <mxCell id="step4" value="步骤4: 影响评估" style="rounded=1;whiteSpace=wrap;html=1;fillColor=#FFCCCC;strokeColor=#B85450;fontColor=#333333;fontSize=12;fontStyle=1;shadow=1;" parent="1" vertex="1">
                    <mxGeometry x="100" y="680" width="150" height="60" as="geometry"/>
                </mxCell>
                <mxCell id="impact_analysis" value="影响范围分析" style="swimlane;html=1;fontStyle=1;align=center;verticalAlign=top;childLayout=stackLayout;horizontal=1;startSize=30;horizontalStack=0;resizeParent=1;resizeLast=0;collapsible=0;marginBottom=0;swimlaneFillColor=#FFF2CC;strokeColor=#D6B656;fontColor=#333333;fontSize=12;" parent="1" vertex="1">
                    <mxGeometry x="300" y="660" width="600" height="100" as="geometry"/>
                </mxCell>
                <mxCell id="system_impact" value="• 系统影响: 110kV母线负荷转移, 备用设备投入   • 安全风险: 高温可能引发火灾或爆炸" style="text;html=1;strokeColor=none;fillColor=none;spacingLeft=4;spacingRight=4;whiteSpace=wrap;overflow=hidden;rotatable=0;fontSize=10;fontColor=#333333;" parent="impact_analysis" vertex="1">
                    <mxGeometry y="30" width="600" height="35" as="geometry"/>
                </mxCell>
                <mxCell id="economic_impact" value="• 经济损失: 预估停电损失巨大 • 处理时限: 建议24小时内完成紧急处理" style="text;html=1;strokeColor=none;fillColor=none;spacingLeft=4;spacingRight=4;whiteSpace=wrap;overflow=hidden;rotatable=0;fontSize=10;fontColor=#333333;" parent="impact_analysis" vertex="1">
                    <mxGeometry y="65" width="600" height="35" as="geometry"/>
                </mxCell>
                <mxCell id="step5" value="步骤5: 解决方案" style="rounded=1;whiteSpace=wrap;html=1;fillColor=#D5E8D4;strokeColor=#82B366;fontColor=#333333;fontSize=12;fontStyle=1;shadow=1;" parent="1" vertex="1">
                    <mxGeometry x="100" y="820" width="150" height="60" as="geometry"/>
                </mxCell>
                <mxCell id="solution_plan" value="检修策略生成" style="swimlane;html=1;fontStyle=1;align=center;verticalAlign=top;childLayout=stackLayout;horizontal=1;startSize=30;horizontalStack=0;resizeParent=1;resizeLast=0;collapsible=0;marginBottom=0;swimlaneFillColor=#E8F5E8;strokeColor=#82B366;fontColor=#333333;fontSize=12;" parent="1" vertex="1">
                    <mxGeometry x="300" y="800" width="700" height="100" as="geometry"/>
                </mxCell>
                <mxCell id="immediate_actions" value="• 立即措施: 降低负荷至80%, 启动强制冷却, 加强监测   • 应急预案: 准备备用变压器投入" style="text;html=1;strokeColor=none;fillColor=none;spacingLeft=4;spacingRight=4;whiteSpace=wrap;overflow=hidden;rotatable=0;fontSize=10;fontColor=#333333;" parent="solution_plan" vertex="1">
                    <mxGeometry y="30" width="700" height="35" as="geometry"/>
                </mxCell>
                <mxCell id="repair_plan" value="• 检修方案: 更换B相绕组, 检查冷却系统, 绝缘测试&amp;nbsp;" style="text;html=1;strokeColor=none;fillColor=none;spacingLeft=4;spacingRight=4;whiteSpace=wrap;overflow=hidden;rotatable=0;fontSize=10;fontColor=#333333;" parent="solution_plan" vertex="1">
                    <mxGeometry y="65" width="700" height="35" as="geometry"/>
                </mxCell>
                <mxCell id="flow1" style="edgeStyle=orthogonalEdgeStyle;rounded=0;orthogonalLoop=1;jettySize=auto;html=1;strokeColor=#4284F3;strokeWidth=3;endArrow=classic;" parent="1" source="fault_input" target="step1" edge="1">
                    <mxGeometry relative="1" as="geometry"/>
                </mxCell>
                <mxCell id="flow2" style="edgeStyle=orthogonalEdgeStyle;rounded=0;orthogonalLoop=1;jettySize=auto;html=1;strokeColor=#4284F3;strokeWidth=3;endArrow=classic;" parent="1" source="step1" target="step2" edge="1">
                    <mxGeometry relative="1" as="geometry"/>
                </mxCell>
                <mxCell id="flow3" style="edgeStyle=orthogonalEdgeStyle;rounded=0;orthogonalLoop=1;jettySize=auto;html=1;strokeColor=#4284F3;strokeWidth=3;endArrow=classic;" parent="1" source="step2" target="step3" edge="1">
                    <mxGeometry relative="1" as="geometry"/>
                </mxCell>
                <mxCell id="flow4" style="edgeStyle=orthogonalEdgeStyle;rounded=0;orthogonalLoop=1;jettySize=auto;html=1;strokeColor=#4284F3;strokeWidth=3;endArrow=classic;" parent="1" source="step3" target="step4" edge="1">
                    <mxGeometry relative="1" as="geometry"/>
                </mxCell>
                <mxCell id="flow5" style="edgeStyle=orthogonalEdgeStyle;rounded=0;orthogonalLoop=1;jettySize=auto;html=1;strokeColor=#4284F3;strokeWidth=3;endArrow=classic;" parent="1" source="step4" target="step5" edge="1">
                    <mxGeometry relative="1" as="geometry"/>
                </mxCell>
                <mxCell id="rag_enhance1" style="edgeStyle=orthogonalEdgeStyle;rounded=0;orthogonalLoop=1;jettySize=auto;html=1;strokeColor=#FF6B6B;strokeWidth=2;endArrow=classic;dashed=1;" parent="1" source="step1" target="rag_retrieval" edge="1">
                    <mxGeometry relative="1" as="geometry"/>
                </mxCell>
                <mxCell id="rag_enhance2" style="edgeStyle=orthogonalEdgeStyle;rounded=0;orthogonalLoop=1;jettySize=auto;html=1;strokeColor=#FF6B6B;strokeWidth=2;endArrow=classic;dashed=1;" parent="1" source="rag_retrieval" target="path_container" edge="1">
                    <mxGeometry relative="1" as="geometry">
                        <mxPoint x="595" y="300" as="sourcePoint"/>
                        <mxPoint x="650" y="340" as="targetPoint"/>
                    </mxGeometry>
                </mxCell>
                <mxCell id="confidence_indicator" value="推理置信度评估" style="swimlane;html=1;fontStyle=1;align=center;verticalAlign=top;childLayout=stackLayout;horizontal=1;startSize=25;horizontalStack=0;resizeParent=1;resizeLast=0;collapsible=0;marginBottom=0;swimlaneFillColor=#E1D5E7;strokeColor=#9673A6;fontColor=#333333;fontSize=11;" parent="1" vertex="1">
                    <mxGeometry x="1050" y="360" width="220" height="180" as="geometry"/>
                </mxCell>
                <mxCell id="conf1" value="• 故障现象匹配度: 92%" style="text;html=1;strokeColor=none;fillColor=none;spacingLeft=4;spacingRight=4;whiteSpace=wrap;overflow=hidden;rotatable=0;fontSize=10;fontColor=#333333;" parent="confidence_indicator" vertex="1">
                    <mxGeometry y="25" width="220" height="20" as="geometry"/>
                </mxCell>
                <mxCell id="conf2" value="• 历史案例相似度: 88%" style="text;html=1;strokeColor=none;fillColor=none;spacingLeft=4;spacingRight=4;whiteSpace=wrap;overflow=hidden;rotatable=0;fontSize=10;fontColor=#333333;" parent="confidence_indicator" vertex="1">
                    <mxGeometry y="45" width="220" height="20" as="geometry"/>
                </mxCell>
                <mxCell id="conf3" value="• 专家知识一致性: 85%" style="text;html=1;strokeColor=none;fillColor=none;spacingLeft=4;spacingRight=4;whiteSpace=wrap;overflow=hidden;rotatable=0;fontSize=10;fontColor=#333333;" parent="confidence_indicator" vertex="1">
                    <mxGeometry y="65" width="220" height="20" as="geometry"/>
                </mxCell>
                <mxCell id="conf4" value="• 因果链条完整性: 90%" style="text;html=1;strokeColor=none;fillColor=none;spacingLeft=4;spacingRight=4;whiteSpace=wrap;overflow=hidden;rotatable=0;fontSize=10;fontColor=#333333;" parent="confidence_indicator" vertex="1">
                    <mxGeometry y="85" width="220" height="20" as="geometry"/>
                </mxCell>
                <mxCell id="conf5" value="• 推理逻辑严密性: 87%" style="text;html=1;strokeColor=none;fillColor=none;spacingLeft=4;spacingRight=4;whiteSpace=wrap;overflow=hidden;rotatable=0;fontSize=10;fontColor=#333333;" parent="confidence_indicator" vertex="1">
                    <mxGeometry y="105" width="220" height="20" as="geometry"/>
                </mxCell>
                <mxCell id="overall_conf" value="综合置信度: 88.4%" style="text;html=1;strokeColor=none;fillColor=none;spacingLeft=4;spacingRight=4;whiteSpace=wrap;overflow=hidden;rotatable=0;fontSize=11;fontColor=#D79B00;fontStyle=1;align=center;" parent="confidence_indicator" vertex="1">
                    <mxGeometry y="135" width="220" height="25" as="geometry"/>
                </mxCell>
            </root>
        </mxGraphModel>
    </diagram>
</mxfile>